{
  "accessors": [
    {
      "bufferView": 2,
      "componentType": 5126,
      "count": 28,
      "max": [
        2443.156494140625,
        1443.156494140625,
        148.30712890625
      ],
      "min": [
        -2443.156494140625,
        -1443.156494140625,
        0.0
      ],
      "type": "VEC3"
    },
    {
      "bufferView": 2,
      "byteOffset": 336,
      "componentType": 5126,
      "count": 28,
      "max": [
        0.0,
        0.0,
        1.0
      ],
      "min": [
        0.0,
        0.0,
        -1.0
      ],
      "type": "VEC3"
    },
    {
      "bufferView": 1,
      "componentType": 5126,
      "count": 28,
      "max": [
        6.0,
        3.0
      ],
      "min": [
        0.0,
        0.0
      ],
      "type": "VEC2"
    },
    {
      "bufferView": 0,
      "componentType": 5125,
      "count": 42,
      "type": "SCALAR"
    },
    {
      "bufferView": 2,
      "byteOffset": 672,
      "componentType": 5126,
      "count": 3565,
      "max": [
        2530.315185546875,
        1500.0,
        210.3629608154297
      ],
      "min": [
        -2500.0,
        -1500.0,
        -564.1522216796875
      ],
      "type": "VEC3"
    },
    {
      "bufferView": 2,
      "byteOffset": 43452,
      "componentType": 5126,
      "count": 3565,
      "max": [
        1.0,
        1.0,
        1.0
      ],
      "min": [
        -1.0,
        -1.0,
        -1.0
      ],
      "type": "VEC3"
    },
    {
      "bufferView": 1,
      "byteOffset": 224,
      "componentType": 5126,
      "count": 3565,
      "max": [
        1500.0,
        100.0
      ],
      "min": [
        -1500.0,
        -257.8177490234375
      ],
      "type": "VEC2"
    },
    {
      "bufferView": 0,
      "byteOffset": 168,
      "componentType": 5125,
      "count": 10458,
      "type": "SCALAR"
    },
    {
      "bufferView": 2,
      "byteOffset": 86232,
      "componentType": 5126,
      "count": 154,
      "max": [
        150.0,
        147.72117614746094,
        0.0
      ],
      "min": [
        -150.0,
        -147.72116088867188,
        -7000.0
      ],
      "type": "VEC3"
    },
    {
      "bufferView": 2,
      "byteOffset": 88080,
      "componentType": 5126,
      "count": 154,
      "max": [
        1.0,
        0.9848079681396484,
        1.0
      ],
      "min": [
        -1.0,
        -0.9848078489303589,
        -1.0
      ],
      "type": "VEC3"
    },
    {
      "bufferView": 1,
      "byteOffset": 28744,
      "componentType": 5126,
      "count": 154,
      "max": [
        0.9722223281860352,
        1.0
      ],
      "min": [
        -0.027777671813964844,
        0.0
      ],
      "type": "VEC2"
    },
    {
      "bufferView": 0,
      "byteOffset": 42000,
      "componentType": 5125,
      "count": 648,
      "type": "SCALAR"
    },
    {
      "bufferView": 2,
      "byteOffset": 89928,
      "componentType": 5126,
      "count": 24,
      "max": [
        649.3366088867188,
        649.3366088867188,
        1298.6732177734375
      ],
      "min": [
        -649.3366088867188,
        -649.3366088867188,
        0.0
      ],
      "type": "VEC3"
    },
    {
      "bufferView": 2,
      "byteOffset": 90216,
      "componentType": 5126,
      "count": 24,
      "max": [
        1.0,
        1.0,
        1.0
      ],
      "min": [
        -1.0,
        -1.0,
        -1.0
      ],
      "type": "VEC3"
    },
    {
      "bufferView": 1,
      "byteOffset": 29976,
      "componentType": 5126,
      "count": 24,
      "max": [
        1.0,
        1.0
      ],
      "min": [
        0.0,
        0.0
      ],
      "type": "VEC2"
    },
    {
      "bufferView": 0,
      "byteOffset": 44592,
      "componentType": 5125,
      "count": 36,
      "type": "SCALAR"
    },
    {
      "bufferView": 2,
      "byteOffset": 90504,
      "componentType": 5126,
      "count": 410,
      "max": [
        8460.4091796875,
        8404.1513671875,
        1726.1973876953125
      ],
      "min": [
        -8460.4716796875,
        -8404.2353515625,
        -1184.5516357421875
      ],
      "type": "VEC3"
    },
    {
      "bufferView": 2,
      "byteOffset": 95424,
      "componentType": 5126,
      "count": 410,
      "max": [
        0.7694685459136963,
        0.6606544256210327,
        1.0
      ],
      "min": [
        -0.6300989985466003,
        -0.565748929977417,
        0.5250518321990967
      ],
      "type": "VEC3"
    },
    {
      "bufferView": 1,
      "byteOffset": 30168,
      "componentType": 5126,
      "count": 410,
      "max": [
        1.0,
        0.9933517575263977
      ],
      "min": [
        0.0,
        0.0
      ],
      "type": "VEC2"
    },
    {
      "bufferView": 0,
      "byteOffset": 44736,
      "componentType": 5125,
      "count": 2292,
      "type": "SCALAR"
    },
    {
      "bufferView": 3,
      "componentType": 5126,
      "count": 601,
      "max": [
        20.0
      ],
      "min": [
        0.0
      ],
      "type": "SCALAR"
    },
    {
      "bufferView": 4,
      "componentType": 5126,
      "count": 601,
      "max": [
        0.8660253882408142,
        0.0,
        0.0,
        0.9659258127212524
      ],
      "min": [
        -0.8660253882408142,
        0.0,
        0.0,
        -0.5
      ],
      "type": "VEC4"
    }
  ],
  "animations": [
    {
      "channels": [
        {
          "sampler": 0,
          "target": {
            "node": 4,
            "path": "rotation"
          }
        }
      ],
      "name": "Take 001",
      "samplers": [
        {
          "input": 20,
          "interpolation": "LINEAR",
          "output": 21
        }
      ]
    }
  ],
  "asset": {
    "extras": {
      "author": "Vadam (https://sketchfab.com/Vadam)",
      "license": "CC-BY-4.0 (http://creativecommons.org/licenses/by/4.0/)",
      "source": "https://sketchfab.com/3d-models/solar-panel-00ffbdc756524e1abf0e9f8f2f49a745",
      "title": "Solar Panel"
    },
    "generator": "Sketchfab-12.65.0",
    "version": "2.0"
  },
  "bufferViews": [
    {
      "buffer": 0,
      "byteLength": 53904,
      "name": "floatBufferViews",
      "target": 34963
    },
    {
      "buffer": 0,
      "byteLength": 33448,
      "byteOffset": 53904,
      "byteStride": 8,
      "name": "floatBufferViews",
      "target": 34962
    },
    {
      "buffer": 0,
      "byteLength": 100344,
      "byteOffset": 87352,
      "byteStride": 12,
      "name": "floatBufferViews",
      "target": 34962
    },
    {
      "buffer": 0,
      "byteLength": 2404,
      "byteOffset": 187696,
      "name": "floatBufferViews"
    },
    {
      "buffer": 0,
      "byteLength": 9616,
      "byteOffset": 190100,
      "byteStride": 16,
      "name": "floatBufferViews"
    }
  ],
  "buffers": [
    {
      "byteLength": 199716,
      "uri": "scene.bin"
    }
  ],
  "extensionsUsed": [
    "KHR_materials_clearcoat"
  ],
  "images": [
    {
      "uri": "textures/Solpanel_baseColor.jpeg"
    },
    {
      "uri": "textures/Grass_baseColor.jpeg"
    }
  ],
  "materials": [
    {
      "doubleSided": true,
      "extensions": {
        "KHR_materials_clearcoat": {
          "clearcoatFactor": 1.0,
          "clearcoatRoughnessFactor": 0.04
        }
      },
      "name": "Solpanel",
      "pbrMetallicRoughness": {
        "baseColorTexture": {
          "index": 0
        },
        "roughnessFactor": 0.0
      }
    },
    {
      "doubleSided": true,
      "name": "Metal",
      "pbrMetallicRoughness": {
        "baseColorFactor": [
          0.588,
          0.588,
          0.588,
          1.0
        ],
        "roughnessFactor": 0.5
      }
    },
    {
      "doubleSided": true,
      "name": "Grass",
      "pbrMetallicRoughness": {
        "baseColorTexture": {
          "index": 1
        },
        "metallicFactor": 0.0,
        "roughnessFactor": 0.8929713596497552
      }
    }
  ],
  "meshes": [
    {
      "name": "Box001_Solpanel_0",
      "primitives": [
        {
          "attributes": {
            "NORMAL": 1,
            "POSITION": 0,
            "TEXCOORD_0": 2
          },
          "indices": 3,
          "material": 0,
          "mode": 4
        }
      ]
    },
    {
      "name": "Box001_Metal_0",
      "primitives": [
        {
          "attributes": {
            "NORMAL": 5,
            "POSITION": 4,
            "TEXCOORD_0": 6
          },
          "indices": 7,
          "material": 1,
          "mode": 4
        }
      ]
    },
    {
      "name": "Cylinder001_Metal_0",
      "primitives": [
        {
          "attributes": {
            "NORMAL": 9,
            "POSITION": 8,
            "TEXCOORD_0": 10
          },
          "indices": 11,
          "material": 1,
          "mode": 4
        }
      ]
    },
    {
      "name": "Box002_Metal_0",
      "primitives": [
        {
          "attributes": {
            "NORMAL": 13,
            "POSITION": 12,
            "TEXCOORD_0": 14
          },
          "indices": 15,
          "material": 1,
          "mode": 4
        }
      ]
    },
    {
      "name": "Circle001_Grass_0",
      "primitives": [
        {
          "attributes": {
            "NORMAL": 17,
            "POSITION": 16,
            "TEXCOORD_0": 18
          },
          "indices": 19,
          "material": 2,
          "mode": 4
        }
      ]
    }
  ],
  "nodes": [
    {
      "children": [
        1
      ],
      "matrix": [
        0.0002847380528692156,
        0.0,
        0.0,
        0.0,
        0.0,
        6.322454845646766e-20,
        -0.0002847380528692156,
        0.0,
        0.0,
        0.0002847380528692156,
        6.322454845646766e-20,
        0.0,
        0.0,
        0.0,
        0.0,
        1.0
      ],
      "name": "Sketchfab_model"
    },
    {
      "children": [
        2
      ],
      "matrix": [
        1.0,
        0.0,
        0.0,
        0.0,
        0.0,
        0.0,
        1.0,
        0.0,
        0.0,
        -1.0,
        0.0,
        0.0,
        0.0,
        0.0,
        0.0,
        1.0
      ],
      "name": "6f4fe070f19c4d8c888f5f378d60c4f7.fbx"
    },
    {
      "children": [
        3
      ],
      "name": "Object_2"
    },
    {
      "children": [
        4,
        8,
        10,
        12
      ],
      "name": "RootNode"
    },
    {
      "children": [
        5
      ],
      "name": "Box001",
      "rotation": [
        -0.8660253882408142,
        0.0,
        0.0,
        0.5
      ],
      "translation": [
        0.0,
        -342.9476013183594,
        -1.499071549915243e-05
      ]
    },
    {
      "children": [
        6,
        7
      ],
      "matrix": [
        1.0,
        0.0,
        -0.0,
        0.0,
        0.0,
        1.0,
        0.0,
        0.0,
        0.0,
        0.0,
        1.0,
        0.0,
        0.0,
        -1.499071549915243e-05,
        342.9476013183594,
        1.0
      ],
      "name": "Object_5"
    },
    {
      "mesh": 0,
      "name": "Box001_Solpanel_0"
    },
    {
      "mesh": 1,
      "name": "Box001_Metal_0"
    },
    {
      "children": [
        9
      ],
      "name": "Cylinder001",
      "rotation": [
        -0.7071068286895752,
        -0.0,
        0.0,
        0.7071068286895752
      ],
      "translation": [
        0.0,
        -206.15684509277344,
        -9.011402653413825e-06
      ]
    },
    {
      "mesh": 2,
      "name": "Cylinder001_Metal_0"
    },
    {
      "children": [
        11
      ],
      "name": "Box002",
      "rotation": [
        -0.7071068286895752,
        -0.0,
        0.0,
        0.7071068286895752
      ],
      "translation": [
        40.74534225463867,
        -7757.25146484375,
        19.33021354675293
      ]
    },
    {
      "mesh": 3,
      "name": "Box002_Metal_0"
    },
    {
      "children": [
        13
      ],
      "name": "Circle001",
      "rotation": [
        -0.7071068286895752,
        -0.0,
        0.0,
        0.7071068286895752
      ],
      "translation": [
        0.0,
        -7705.419921875,
        -473.6435546875
      ]
    },
    {
      "mesh": 4,
      "name": "Circle001_Grass_0"
    }
  ],
  "samplers": [
    {
      "magFilter": 9729,
      "minFilter": 9987,
      "wrapS": 10497,
      "wrapT": 10497
    }
  ],
  "scene": 0,
  "scenes": [
    {
      "name": "Sketchfab_Scene",
      "nodes": [
        0
      ]
    }
  ],
  "textures": [
    {
      "sampler": 0,
      "source": 0
    },
    {
      "sampler": 0,
      "source": 1
    }
  ]
}
