{
  "accessors": [
    {
      "bufferView": 2,
      "componentType": 5126,
      "count": 4045,
      "max": [
        76.89408874511719,
        32.040550231933594,
        596.0562744140625
      ],
      "min": [
        55.62247085571289,
        -42.570274353027344,
        62.212501525878906
      ],
      "type": "VEC3"
    },
    {
      "bufferView": 2,
      "byteOffset": 48540,
      "componentType": 5126,
      "count": 4045,
      "max": [
        1.0,
        1.0,
        1.0
      ],
      "min": [
        -1.0,
        -1.0,
        -1.0
      ],
      "type": "VEC3"
    },
    {
      "bufferView": 0,
      "componentType": 5125,
      "count": 13782,
      "type": "SCALAR"
    },
    {
      "bufferView": 2,
      "byteOffset": 97080,
      "componentType": 5126,
      "count": 441,
      "max": [
        88.2806396484375,
        43.892601013183594,
        579.733642578125
      ],
      "min": [
        44.388038635253906,
        0.0,
        0.0
      ],
      "type": "VEC3"
    },
    {
      "bufferView": 2,
      "byteOffset": 102372,
      "componentType": 5126,
      "count": 441,
      "max": [
        1.0,
        0.9952970147132874,
        1.0
      ],
      "min": [
        -1.0,
        -0.9952970147132874,
        -1.0
      ],
      "type": "VEC3"
    },
    {
      "bufferView": 0,
      "byteOffset": 55128,
      "componentType": 5125,
      "count": 1209,
      "type": "SCALAR"
    },
    {
      "bufferView": 2,
      "byteOffset": 107664,
      "componentType": 5126,
      "count": 593,
      "max": [
        88.2806396484375,
        43.892601013183594,
        62.212501525878906
      ],
      "min": [
        44.388038635253906,
        0.0,
        0.0
      ],
      "type": "VEC3"
    },
    {
      "bufferView": 2,
      "byteOffset": 114780,
      "componentType": 5126,
      "count": 593,
      "max": [
        0.9952970147132874,
        0.9952970147132874,
        1.0
      ],
      "min": [
        -0.9952970147132874,
        -0.9952970147132874,
        -1.0
      ],
      "type": "VEC3"
    },
    {
      "bufferView": 1,
      "componentType": 5126,
      "count": 593,
      "max": [
        1.471343994140625,
        1.3296760320663452
      ],
      "min": [
        -1.2121460437774658,
        -0.2601929008960724
      ],
      "type": "VEC2"
    },
    {
      "bufferView": 0,
      "byteOffset": 59964,
      "componentType": 5125,
      "count": 1059,
      "type": "SCALAR"
    },
    {
      "bufferView": 2,
      "byteOffset": 121896,
      "componentType": 5126,
      "count": 9660,
      "max": [
        83.40644836425781,
        19.008939743041992,
        589.5744018554688
      ],
      "min": [
        49.45950698852539,
        -47.878387451171875,
        572.2769165039063
      ],
      "type": "VEC3"
    },
    {
      "bufferView": 2,
      "byteOffset": 237816,
      "componentType": 5126,
      "count": 9660,
      "max": [
        1.0,
        1.0,
        1.0
      ],
      "min": [
        -1.0,
        -1.0,
        -1.0
      ],
      "type": "VEC3"
    },
    {
      "bufferView": 0,
      "byteOffset": 64200,
      "componentType": 5125,
      "count": 31401,
      "type": "SCALAR"
    },
    {
      "bufferView": 2,
      "byteOffset": 353736,
      "componentType": 5126,
      "count": 5608,
      "max": [
        79.80001068115234,
        -17.68130874633789,
        581.135498046875
      ],
      "min": [
        49.47932052612305,
        -44.812782287597656,
        578.9159545898438
      ],
      "type": "VEC3"
    },
    {
      "bufferView": 2,
      "byteOffset": 421032,
      "componentType": 5126,
      "count": 5608,
      "max": [
        1.0,
        1.0,
        1.0
      ],
      "min": [
        -1.0,
        -1.0,
        -1.0
      ],
      "type": "VEC3"
    },
    {
      "bufferView": 0,
      "byteOffset": 189804,
      "componentType": 5125,
      "count": 18696,
      "type": "SCALAR"
    },
    {
      "bufferView": 2,
      "byteOffset": 488328,
      "componentType": 5126,
      "count": 91,
      "max": [
        72.62908935546875,
        -20.191280364990234,
        580.8101806640625
      ],
      "min": [
        60.23686218261719,
        -38.41538619995117,
        580.8101806640625
      ],
      "type": "VEC3"
    },
    {
      "bufferView": 2,
      "byteOffset": 489420,
      "componentType": 5126,
      "count": 91,
      "max": [
        1.6292098337089556e-07,
        -6.1724487743219925e-09,
        -1.0
      ],
      "min": [
        -1.6292101179260499e-07,
        -6.172449662500412e-09,
        -1.0
      ],
      "type": "VEC3"
    },
    {
      "bufferView": 0,
      "byteOffset": 264588,
      "componentType": 5125,
      "count": 255,
      "type": "SCALAR"
    },
    {
      "bufferView": 2,
      "byteOffset": 490512,
      "componentType": 5126,
      "count": 20,
      "max": [
        79.80001068115234,
        -19.949926376342773,
        578.9159545898438
      ],
      "min": [
        53.06594467163086,
        -44.812782287597656,
        578.9159545898438
      ],
      "type": "VEC3"
    },
    {
      "bufferView": 2,
      "byteOffset": 490752,
      "componentType": 5126,
      "count": 20,
      "max": [
        -1.6292098337089556e-07,
        6.1724487743219925e-09,
        1.0
      ],
      "min": [
        -1.6292098337089556e-07,
        6.1724487743219925e-09,
        1.0
      ],
      "type": "VEC3"
    },
    {
      "bufferView": 0,
      "byteOffset": 265608,
      "componentType": 5125,
      "count": 54,
      "type": "SCALAR"
    },
    {
      "bufferView": 2,
      "byteOffset": 490992,
      "componentType": 5126,
      "count": 20,
      "max": [
        79.80001068115234,
        -19.949926376342773,
        578.9159545898438
      ],
      "min": [
        53.06594467163086,
        -44.812782287597656,
        578.9159545898438
      ],
      "type": "VEC3"
    },
    {
      "bufferView": 2,
      "byteOffset": 491232,
      "componentType": 5126,
      "count": 20,
      "max": [
        1.6292098337089556e-07,
        -6.1724487743219925e-09,
        -1.0
      ],
      "min": [
        1.6292098337089556e-07,
        -6.1724487743219925e-09,
        -1.0
      ],
      "type": "VEC3"
    },
    {
      "bufferView": 0,
      "byteOffset": 265824,
      "componentType": 5125,
      "count": 54,
      "type": "SCALAR"
    },
    {
      "bufferView": 2,
      "byteOffset": 491472,
      "componentType": 5126,
      "count": 384,
      "max": [
        83.09532165527344,
        -16.404529571533203,
        578.3599243164063
      ],
      "min": [
        49.86110305786133,
        -17.131620407104492,
        578.1142578125
      ],
      "type": "VEC3"
    },
    {
      "bufferView": 2,
      "byteOffset": 496080,
      "componentType": 5126,
      "count": 384,
      "max": [
        0.995728611946106,
        0.9957871437072754,
        0.9998229146003723
      ],
      "min": [
        -0.995728611946106,
        -0.9957871437072754,
        -0.9998229146003723
      ],
      "type": "VEC3"
    },
    {
      "bufferView": 0,
      "byteOffset": 266040,
      "componentType": 5125,
      "count": 1104,
      "type": "SCALAR"
    },
    {
      "bufferView": 2,
      "byteOffset": 500688,
      "componentType": 5126,
      "count": 68,
      "max": [
        71.2389144897461,
        -24.520479202270508,
        580.8745727539063
      ],
      "min": [
        61.302677154541016,
        -26.71029281616211,
        580.5349731445313
      ],
      "type": "VEC3"
    },
    {
      "bufferView": 0,
      "byteOffset": 270456,
      "componentType": 5125,
      "count": 118,
      "type": "SCALAR"
    },
    {
      "bufferView": 2,
      "byteOffset": 501504,
      "componentType": 5126,
      "count": 82,
      "max": [
        73.615234375,
        18.255985260009766,
        589.5744018554688
      ],
      "min": [
        59.37902069091797,
        -28.049989700317383,
        580.8101806640625
      ],
      "type": "VEC3"
    },
    {
      "bufferView": 0,
      "byteOffset": 270928,
      "componentType": 5125,
      "count": 138,
      "type": "SCALAR"
    },
    {
      "bufferView": 2,
      "byteOffset": 502488,
      "componentType": 5126,
      "count": 192,
      "max": [
        82.909423828125,
        -18.231916427612305,
        578.3609619140625
      ],
      "min": [
        50.024139404296875,
        -18.5251407623291,
        578.3103637695313
      ],
      "type": "VEC3"
    },
    {
      "bufferView": 2,
      "byteOffset": 504792,
      "componentType": 5126,
      "count": 192,
      "max": [
        0.996229887008667,
        0.9963920712471008,
        0.9998371005058289
      ],
      "min": [
        -0.996229887008667,
        -0.9963920712471008,
        -0.9998371005058289
      ],
      "type": "VEC3"
    },
    {
      "bufferView": 0,
      "byteOffset": 271480,
      "componentType": 5125,
      "count": 552,
      "type": "SCALAR"
    },
    {
      "bufferView": 2,
      "byteOffset": 507096,
      "componentType": 5126,
      "count": 1248,
      "max": [
        69.13971710205078,
        4.0123395919799805,
        590.5423583984375
      ],
      "min": [
        63.735389709472656,
        -10.440000534057617,
        578.6755981445313
      ],
      "type": "VEC3"
    },
    {
      "bufferView": 2,
      "byteOffset": 522072,
      "componentType": 5126,
      "count": 1248,
      "max": [
        1.0,
        0.9996724724769592,
        1.0
      ],
      "min": [
        -1.0,
        -0.9996724724769592,
        -1.0
      ],
      "type": "VEC3"
    },
    {
      "bufferView": 0,
      "byteOffset": 273688,
      "componentType": 5125,
      "count": 5448,
      "type": "SCALAR"
    }
  ],
  "asset": {
    "extras": {
      "author": "Streetlights & ETC (https://sketchfab.com/daffyxxcoolxx)",
      "license": "CC-BY-4.0 (http://creativecommons.org/licenses/by/4.0/)",
      "source": "https://sketchfab.com/3d-models/led-parking-light-2-dcc7238701624cfc8b2190b7fa09dbf7",
      "title": "LED Parking light 2"
    },
    "generator": "Sketchfab-13.90.0",
    "version": "2.0"
  },
  "bufferViews": [
    {
      "buffer": 0,
      "byteLength": 295480,
      "name": "floatBufferViews",
      "target": 34963
    },
    {
      "buffer": 0,
      "byteLength": 4744,
      "byteOffset": 295480,
      "byteStride": 8,
      "name": "floatBufferViews",
      "target": 34962
    },
    {
      "buffer": 0,
      "byteLength": 537048,
      "byteOffset": 300224,
      "byteStride": 12,
      "name": "floatBufferViews",
      "target": 34962
    }
  ],
  "buffers": [
    {
      "byteLength": 837272,
      "uri": "scene.bin"
    }
  ],
  "extensionsUsed": [
    "KHR_materials_transmission"
  ],
  "images": [
    {
      "uri": "textures/Polished_Concrete_New_baseColor.jpeg"
    }
  ],
  "materials": [
    {
      "name": "Color_M08",
      "pbrMetallicRoughness": {
        "baseColorFactor": [
          0.029788199746901677,
          0.021664148409313532,
          0.012186077006382216,
          1.0
        ],
        "metallicFactor": 0.3756928262443494,
        "roughnessFactor": 0.40002920365289024
      }
    },
    {
      "name": "material",
      "pbrMetallicRoughness": {
        "metallicFactor": 0.0,
        "roughnessFactor": 0.6
      }
    },
    {
      "name": "Polished_Concrete_New",
      "pbrMetallicRoughness": {
        "baseColorTexture": {
          "index": 0
        },
        "metallicFactor": 0.0,
        "roughnessFactor": 0.6
      }
    },
    {
      "name": "Color_M02",
      "pbrMetallicRoughness": {
        "baseColorFactor": [
          0.018240351386869306,
          0.013265712021562029,
          0.007461959047960915,
          1.0
        ],
        "metallicFactor": 0.10799267475040003,
        "roughnessFactor": 0.3513564488358085
      }
    },
    {
      "alphaMode": "BLEND",
      "emissiveFactor": [
        0.2889944817264226,
        0.2889944817264226,
        0.2889944817264226
      ],
      "extensions": {
        "KHR_materials_transmission": {
          "transmissionFactor": 0.721652683389814
        }
      },
      "name": "Color_M01",
      "pbrMetallicRoughness": {
        "baseColorFactor": [
          0.886274,
          0.886274,
          0.886274,
          0.27834731661018597
        ],
        "roughnessFactor": 0.0
      }
    },
    {
      "emissiveFactor": [
        1.0,
        1.0,
        1.0
      ],
      "name": "0130_Gainsboro_1",
      "pbrMetallicRoughness": {
        "roughnessFactor": 0.0
      }
    },
    {
      "alphaMode": "BLEND",
      "name": "Translucent_Glass_Gray",
      "pbrMetallicRoughness": {
        "baseColorFactor": [
          0.501961,
          0.501961,
          0.501961,
          0.501961
        ],
        "metallicFactor": 0.0,
        "roughnessFactor": 0.6
      }
    },
    {
      "alphaMode": "BLEND",
      "name": "0130_Gainsboro",
      "pbrMetallicRoughness": {
        "baseColorFactor": [
          0.862745,
          0.862745,
          0.862745,
          0.34902
        ],
        "roughnessFactor": 0.0
      }
    },
    {
      "name": "Color_M04",
      "pbrMetallicRoughness": {
        "baseColorFactor": [
          0.24647751166625093,
          0.24647751166625093,
          0.24647751166625093,
          1.0
        ],
        "roughnessFactor": 0.3209359770751325
      }
    },
    {
      "name": "edge_color000255",
      "pbrMetallicRoughness": {
        "metallicFactor": 0.0,
        "roughnessFactor": 0.6
      }
    },
    {
      "alphaMode": "BLEND",
      "name": "edge_color22169255",
      "pbrMetallicRoughness": {
        "baseColorFactor": [
          1.0,
          1.0,
          1.0,
          0.0
        ],
        "metallicFactor": 0.0,
        "roughnessFactor": 0.6
      }
    },
    {
      "name": "Color_M03",
      "pbrMetallicRoughness": {
        "baseColorFactor": [
          0.666667,
          0.666667,
          0.666667,
          1.0
        ],
        "metallicFactor": 0.7772430534852734,
        "roughnessFactor": 0.22967456179310428
      }
    },
    {
      "name": "Color_M09",
      "pbrMetallicRoughness": {
        "baseColorFactor": [
          0.0,
          0.0,
          0.0,
          1.0
        ],
        "metallicFactor": 0.0,
        "roughnessFactor": 0.6
      }
    }
  ],
  "meshes": [
    {
      "name": "Material2",
      "primitives": [
        {
          "attributes": {
            "NORMAL": 1,
            "POSITION": 0
          },
          "indices": 2,
          "material": 0,
          "mode": 4
        }
      ]
    },
    {
      "name": "Material2",
      "primitives": [
        {
          "attributes": {
            "NORMAL": 4,
            "POSITION": 3
          },
          "indices": 5,
          "material": 1,
          "mode": 4
        }
      ]
    },
    {
      "name": "Material3",
      "primitives": [
        {
          "attributes": {
            "NORMAL": 7,
            "POSITION": 6,
            "TEXCOORD_0": 8
          },
          "indices": 9,
          "material": 2,
          "mode": 4
        }
      ]
    },
    {
      "name": "Material2",
      "primitives": [
        {
          "attributes": {
            "NORMAL": 11,
            "POSITION": 10
          },
          "indices": 12,
          "material": 3,
          "mode": 4
        }
      ]
    },
    {
      "name": "Material3",
      "primitives": [
        {
          "attributes": {
            "NORMAL": 14,
            "POSITION": 13
          },
          "indices": 15,
          "material": 4,
          "mode": 4
        }
      ]
    },
    {
      "name": "Material3",
      "primitives": [
        {
          "attributes": {
            "NORMAL": 17,
            "POSITION": 16
          },
          "indices": 18,
          "material": 5,
          "mode": 4
        }
      ]
    },
    {
      "name": "Material2",
      "primitives": [
        {
          "attributes": {
            "NORMAL": 20,
            "POSITION": 19
          },
          "indices": 21,
          "material": 6,
          "mode": 4
        }
      ]
    },
    {
      "name": "Material3",
      "primitives": [
        {
          "attributes": {
            "NORMAL": 23,
            "POSITION": 22
          },
          "indices": 24,
          "material": 7,
          "mode": 4
        }
      ]
    },
    {
      "name": "Material2",
      "primitives": [
        {
          "attributes": {
            "NORMAL": 26,
            "POSITION": 25
          },
          "indices": 27,
          "material": 8,
          "mode": 4
        }
      ]
    },
    {
      "name": "Material2",
      "primitives": [
        {
          "attributes": {
            "POSITION": 28
          },
          "indices": 29,
          "material": 9,
          "mode": 1
        }
      ]
    },
    {
      "name": "Material2",
      "primitives": [
        {
          "attributes": {
            "POSITION": 30
          },
          "indices": 31,
          "material": 10,
          "mode": 1
        }
      ]
    },
    {
      "name": "Material2",
      "primitives": [
        {
          "attributes": {
            "NORMAL": 33,
            "POSITION": 32
          },
          "indices": 34,
          "material": 11,
          "mode": 4
        }
      ]
    },
    {
      "name": "Material2",
      "primitives": [
        {
          "attributes": {
            "NORMAL": 36,
            "POSITION": 35
          },
          "indices": 37,
          "material": 12,
          "mode": 4
        }
      ]
    }
  ],
  "nodes": [
    {
      "children": [
        1
      ],
      "matrix": [
        1.0,
        0.0,
        0.0,
        0.0,
        0.0,
        2.220446049250313e-16,
        -1.0,
        0.0,
        0.0,
        1.0,
        2.220446049250313e-16,
        0.0,
        0.0,
        0.0,
        0.0,
        1.0
      ],
      "name": "Sketchfab_model"
    },
    {
      "children": [
        2,
        3,
        4,
        5,
        6,
        7,
        8,
        9,
        10,
        11,
        12,
        13,
        14,
        15
      ],
      "name": "Collada visual scene group"
    },
    {
      "mesh": 0,
      "name": "Material2"
    },
    {
      "mesh": 1,
      "name": "Material2"
    },
    {
      "mesh": 2,
      "name": "Material3"
    },
    {
      "mesh": 3,
      "name": "Material2"
    },
    {
      "mesh": 4,
      "name": "Material3"
    },
    {
      "mesh": 5,
      "name": "Material3"
    },
    {
      "mesh": 6,
      "name": "Material2"
    },
    {
      "mesh": 7,
      "name": "Material3"
    },
    {
      "mesh": 8,
      "name": "Material2"
    },
    {
      "mesh": 9,
      "name": "Material2"
    },
    {
      "mesh": 10,
      "name": "Material2"
    },
    {
      "mesh": 11,
      "name": "Material2"
    },
    {
      "mesh": 12,
      "name": "Material2"
    },
    {
      "children": [
        16
      ],
      "name": "SketchUp"
    },
    {
      "children": [
        17
      ],
      "matrix": [
        0.3923654,
        -0.9198095,
        -1.387779e-17,
        0.0,
        -0.3152414,
        -0.1344733,
        0.9394359,
        0.0,
        -0.864102,
        -0.3686021,
        -0.3427247,
        0.0,
        -47.53072,
        -85.05755,
        530.5505,
        1.0
      ],
      "name": "skp_camera_Last_Saved_SketchUp_View"
    },
    {
      "name": "ID1"
    }
  ],
  "samplers": [
    {
      "magFilter": 9729,
      "minFilter": 9987,
      "wrapS": 10497,
      "wrapT": 10497
    }
  ],
  "scene": 0,
  "scenes": [
    {
      "name": "Sketchfab_Scene",
      "nodes": [
        0
      ]
    }
  ],
  "textures": [
    {
      "sampler": 0,
      "source": 0
    }
  ]
}
