{
  "accessors": [
    {
      "bufferView": 2,
      "componentType": 5126,
      "count": 108,
      "max": [
        0.5000000596046448,
        0.8692398071289063,
        0.49999988079071045
      ],
      "min": [
        -0.49999988079071045,
        -0.5,
        -0.5000001192092896
      ],
      "type": "VEC3"
    },
    {
      "bufferView": 2,
      "byteOffset": 1296,
      "componentType": 5126,
      "count": 108,
      "max": [
        1.0,
        1.0,
        1.0
      ],
      "min": [
        -1.0,
        -1.0,
        -1.0
      ],
      "type": "VEC3"
    },
    {
      "bufferView": 1,
      "componentType": 5126,
      "count": 108,
      "max": [
        0.8788307309150696,
        0.9801741242408752
      ],
      "min": [
        0.01566147804260254,
        0.11119669675827026
      ],
      "type": "VEC2"
    },
    {
      "bufferView": 0,
      "componentType": 5125,
      "count": 276,
      "type": "SCALAR"
    },
    {
      "bufferView": 2,
      "byteOffset": 2592,
      "componentType": 5126,
      "count": 3568,
      "max": [
        0.7204770445823669,
        0.24978893995285034,
        0.3789098858833313
      ],
      "min": [
        -0.7118451595306396,
        -0.3268343508243561,
        -0.4471844732761383
      ],
      "type": "VEC3"
    },
    {
      "bufferView": 2,
      "byteOffset": 45408,
      "componentType": 5126,
      "count": 3568,
      "max": [
        1.0,
        1.0,
        1.0
      ],
      "min": [
        -1.0,
        -1.0,
        -1.0
      ],
      "type": "VEC3"
    },
    {
      "bufferView": 1,
      "byteOffset": 864,
      "componentType": 5126,
      "count": 3568,
      "max": [
        1500.0,
        257.8177490234375
      ],
      "min": [
        -1500.0,
        -100.0
      ],
      "type": "VEC2"
    },
    {
      "bufferView": 0,
      "byteOffset": 1104,
      "componentType": 5125,
      "count": 10458,
      "type": "SCALAR"
    },
    {
      "bufferView": 2,
      "byteOffset": 88224,
      "componentType": 5126,
      "count": 157,
      "max": [
        0.04271070659160614,
        -0.058700691908597946,
        0.04206210747361183
      ],
      "min": [
        -0.04271070659160614,
        -2.0518672466278076,
        -0.04206184670329094
      ],
      "type": "VEC3"
    },
    {
      "bufferView": 2,
      "byteOffset": 90108,
      "componentType": 5126,
      "count": 157,
      "max": [
        1.0,
        1.0,
        1.0
      ],
      "min": [
        -1.0,
        -0.9848078489303589,
        -1.0
      ],
      "type": "VEC3"
    },
    {
      "bufferView": 1,
      "byteOffset": 29408,
      "componentType": 5126,
      "count": 157,
      "max": [
        0.9722223281860352,
        0.0
      ],
      "min": [
        -0.027777671813964844,
        -1.0
      ],
      "type": "VEC2"
    },
    {
      "bufferView": 0,
      "byteOffset": 42936,
      "componentType": 5125,
      "count": 648,
      "type": "SCALAR"
    }
  ],
  "asset": {
    "extras": {
      "author": "phamnguyetmt2003 (https://sketchfab.com/phamnguyetmt2003)",
      "license": "CC-BY-4.0 (http://creativecommons.org/licenses/by/4.0/)",
      "source": "https://sketchfab.com/3d-models/solar-panel-3-85ea1c2570944d5098225acc2f54c013",
      "title": "solar_panel_3"
    },
    "generator": "Sketchfab-16.64.0",
    "version": "2.0"
  },
  "bufferViews": [
    {
      "buffer": 0,
      "byteLength": 45528,
      "name": "floatBufferViews",
      "target": 34963
    },
    {
      "buffer": 0,
      "byteLength": 30664,
      "byteOffset": 45528,
      "byteStride": 8,
      "name": "floatBufferViews",
      "target": 34962
    },
    {
      "buffer": 0,
      "byteLength": 91992,
      "byteOffset": 76192,
      "byteStride": 12,
      "name": "floatBufferViews",
      "target": 34962
    }
  ],
  "buffers": [
    {
      "byteLength": 168184,
      "uri": "scene.bin"
    }
  ],
  "images": [
    {
      "uri": "textures/standardSurface2_baseColor.png"
    }
  ],
  "materials": [
    {
      "doubleSided": true,
      "name": "standardSurface2",
      "pbrMetallicRoughness": {
        "baseColorTexture": {
          "index": 0
        },
        "metallicFactor": 0.0,
        "roughnessFactor": 0.6
      }
    },
    {
      "doubleSided": true,
      "name": "model3Metal1",
      "pbrMetallicRoughness": {
        "baseColorFactor": [
          0.792157,
          0.792157,
          0.792157,
          1.0
        ],
        "metallicFactor": 0.0,
        "roughnessFactor": 0.6
      }
    }
  ],
  "meshes": [
    {
      "name": "pCube1_standardSurface2_0",
      "primitives": [
        {
          "attributes": {
            "NORMAL": 1,
            "POSITION": 0,
            "TEXCOORD_0": 2
          },
          "indices": 3,
          "material": 0,
          "mode": 4
        }
      ]
    },
    {
      "name": "model3:Box001_Metal_0_model3:Metal1_0",
      "primitives": [
        {
          "attributes": {
            "NORMAL": 5,
            "POSITION": 4,
            "TEXCOORD_0": 6
          },
          "indices": 7,
          "material": 1,
          "mode": 4
        }
      ]
    },
    {
      "name": "model3:Cylinder001_Metal_0_model3:Metal1_0",
      "primitives": [
        {
          "attributes": {
            "NORMAL": 9,
            "POSITION": 8,
            "TEXCOORD_0": 10
          },
          "indices": 11,
          "material": 1,
          "mode": 4
        }
      ]
    }
  ],
  "nodes": [
    {
      "children": [
        1
      ],
      "matrix": [
        1.0,
        0.0,
        0.0,
        0.0,
        0.0,
        2.220446049250313e-16,
        -1.0,
        0.0,
        0.0,
        1.0,
        2.220446049250313e-16,
        0.0,
        0.0,
        0.0,
        0.0,
        1.0
      ],
      "name": "Sketchfab_model"
    },
    {
      "children": [
        2
      ],
      "matrix": [
        0.009999999776482582,
        0.0,
        0.0,
        0.0,
        0.0,
        0.0,
        0.009999999776482582,
        0.0,
        0.0,
        -0.009999999776482582,
        0.0,
        0.0,
        0.0,
        0.0,
        0.0,
        1.0
      ],
      "name": "595f075f844a4adf9d6c271e00f45d43.fbx"
    },
    {
      "children": [
        3,
        5
      ],
      "name": "RootNode"
    },
    {
      "children": [
        4
      ],
      "matrix": [
        1.3996659517288208,
        0.0,
        0.0,
        0.0,
        0.0,
        0.02377782912360806,
        -0.01344873111207024,
        0.0,
        0.0,
        0.40637974479436684,
        0.7184936668369788,
        0.0,
        -3.0678677558898926,
        2.7035932540893555,
        -0.05917293205857277,
        1.0
      ],
      "name": "pCube1"
    },
    {
      "mesh": 0,
      "name": "pCube1_standardSurface2_0"
    },
    {
      "children": [
        6,
        8
      ],
      "matrix": [
        1.0,
        0.0,
        0.0,
        0.0,
        0.0,
        1.0,
        0.0,
        0.0,
        0.0,
        0.0,
        1.0,
        0.0,
        -3.058210611343384,
        0.0,
        0.0,
        1.0
      ],
      "name": "group1"
    },
    {
      "children": [
        7
      ],
      "matrix": [
        1.0,
        0.0,
        0.0,
        0.0,
        0.0,
        1.0,
        0.0,
        0.0,
        0.0,
        0.0,
        1.0,
        0.0,
        0.0,
        2.692614793777466,
        0.0,
        1.0
      ],
      "name": "model3:Box001_Metal_0"
    },
    {
      "mesh": 1,
      "name": "model3:Box001_Metal_0_model3:Metal1_0"
    },
    {
      "children": [
        9
      ],
      "matrix": [
        1.0,
        0.0,
        0.0,
        0.0,
        0.0,
        0.6209554076194763,
        0.0,
        0.0,
        0.0,
        0.0,
        1.0,
        0.0,
        0.0,
        2.692614793777466,
        0.0,
        1.0
      ],
      "name": "model3:Cylinder001_Metal_0"
    },
    {
      "mesh": 2,
      "name": "model3:Cylinder001_Metal_0_model3:Metal1_0"
    }
  ],
  "samplers": [
    {
      "magFilter": 9729,
      "minFilter": 9987,
      "wrapS": 10497,
      "wrapT": 10497
    }
  ],
  "scene": 0,
  "scenes": [
    {
      "name": "Sketchfab_Scene",
      "nodes": [
        0
      ]
    }
  ],
  "textures": [
    {
      "sampler": 0,
      "source": 0
    }
  ]
}
