{"accessors" : [{"bufferView" : 0, "byteOffset" : 0, "componentType" : 5123, "count" : 276, "type" : "SCALAR", "max" : [183], "min" : [0]}, {"bufferView" : 1, "byteOffset" : 0, "componentType" : 5126, "count" : 184, "type" : "VEC3", "max" : [0.5000000596046448, 0.8692398071289062, 0.49999988079071045], "min" : [-0.49999988079071045, -0.5, -0.5000001192092896], "name" : "POSITION"}, {"bufferView" : 1, "byteOffset" : 12, "componentType" : 5126, "count" : 184, "type" : "VEC3", "max" : [1.0000044107437134, 1.0000044107437134, 1.0000044107437134], "min" : [-1.0000044107437134, -1.0000044107437134, -1.0000044107437134], "name" : "NORMAL"}, {"bufferView" : 1, "byteOffset" : 24, "componentType" : 5126, "count" : 184, "type" : "VEC2", "max" : [0.8788307309150696, 0.8888033032417297], "min" : [0.01566147804260254, 0.019825875759124756], "name" : "TEXCOORD_0"}, {"bufferView" : 0, "byteOffset" : 552, "componentType" : 5123, "count" : 10458, "type" : "SCALAR", "max" : [10457], "min" : [0]}, {"bufferView" : 2, "byteOffset" : 0, "componentType" : 5126, "count" : 10458, "type" : "VEC3", "max" : [0.7204770445823669, 0.24978893995285034, 0.3789098858833313], "min" : [-0.7118451595306396, -0.3268343508243561, -0.4471844732761383], "name" : "POSITION"}, {"bufferView" : 2, "byteOffset" : 12, "componentType" : 5126, "count" : 10458, "type" : "VEC3", "max" : [1.0000044107437134, 1.0000044107437134, 1.0000044107437134], "min" : [-1.0000044107437134, -1.0000044107437134, -1.0000044107437134], "name" : "NORMAL"}, {"bufferView" : 2, "byteOffset" : 24, "componentType" : 5126, "count" : 10458, "type" : "VEC2", "max" : [1500, 101], "min" : [-1500, -256.8177490234375], "name" : "TEXCOORD_0"}, {"bufferView" : 0, "byteOffset" : 21468, "componentType" : 5123, "count" : 648, "type" : "SCALAR", "max" : [647], "min" : [0]}, {"bufferView" : 3, "byteOffset" : 0, "componentType" : 5126, "count" : 648, "type" : "VEC3", "max" : [0.04271070659160614, -0.058700691908597946, 0.04206210747361183], "min" : [-0.04271070659160614, -2.0518672466278076, -0.04206184670329094], "name" : "POSITION"}, {"bufferView" : 3, "byteOffset" : 12, "componentType" : 5126, "count" : 648, "type" : "VEC3", "max" : [1.0000044107437134, 1.0000044107437134, 1.0000044107437134], "min" : [-1.0000044107437134, -0.9848121404647827, -1.0000044107437134], "name" : "NORMAL"}, {"bufferView" : 3, "byteOffset" : 24, "componentType" : 5126, "count" : 648, "type" : "VEC2", "max" : [0.9722223281860352, 2], "min" : [-0.027777671813964844, 1], "name" : "TEXCOORD_0"}], "asset" : {"generator" : "Aspose.3D 25.2.0", "version" : "2.0"}, "buffers" : [{"uri" : "data:application/octet-stream;base64,", "byteLength" : 384060}], "bufferViews" : [{"buffer" : 0, "byteOffset" : 0, "byteLength" : 22764, "target" : 34963}, {"buffer" : 0, "byteOffset" : 22768, "byteLength" : 5888, "byteStride" : 32, "target" : 34962}, {"buffer" : 0, "byteOffset" : 28660, "byteLength" : 334656, "byteStride" : 32, "target" : 34962}, {"buffer" : 0, "byteOffset" : 363320, "byteLength" : 20736, "byteStride" : 32, "target" : 34962}], "materials" : [{"name" : "standardSurface2", "pbrMetallicRoughness" : {"baseColorFactor" : [0, 0, 0, 1], "metallicFactor" : 1, "roughnessFactor" : 1}, "emissiveFactor" : [0, 0, 0], "alphaMode" : "OPAQUE", "doubleSided" : false}, {"name" : "model3:Metal1", "pbrMetallicRoughness" : {"baseColorFactor" : [0.7921568751335144, 0.7921568751335144, 0.7921568751335144, 1], "metallicFactor" : 1, "roughnessFactor" : 1}, "emissiveFactor" : [0, 0, 0], "alphaMode" : "OPAQUE", "doubleSided" : false}], "meshes" : [{"primitives" : [{"attributes" : {"POSITION" : 1, "NORMAL" : 2, "TEXCOORD_0" : 3}, "indices" : 0, "material" : 0, "mode" : 4}], "name" : ""}, {"primitives" : [{"attributes" : {"POSITION" : 5, "NORMAL" : 6, "TEXCOORD_0" : 7}, "indices" : 4, "material" : 1, "mode" : 4}], "name" : ""}, {"primitives" : [{"attributes" : {"POSITION" : 9, "NORMAL" : 10, "TEXCOORD_0" : 11}, "indices" : 8, "material" : 1, "mode" : 4}], "name" : ""}], "nodes" : [{"matrix" : [1.4096659669079048, 0, 0, 0, 0, 0.023777828992510082, -0.01344873103792127, 0, 0, 0.40637973682472023, 0.7184936527463638, 0, -3.0678676493835697, 2.703593229795039, -0.05917293145910196, 1], "mesh" : 0, "name" : "pCube1"}, {"matrix" : [1, 0, 0, 0, 0, 1, 0, 0, 0, 0, 1, 0, 0, 2.692614887176407, 0, 1], "mesh" : 1, "name" : "model3:Box001_Metal_0"}, {"matrix" : [1, 0, 0, 0, 0, 0.6209554308906353, 0, 0, 0, 0, 1, 0, 0, 2.692614887176407, 0, 1], "mesh" : 2, "name" : "model3:Cylinder001_Metal_0"}, {"children" : [1, 2], "matrix" : [1, 0, 0, 0, 0, 1, 0, 0, 0, 0, 1, 0, -3.0582106433876852, 0, 0, 1], "name" : "group1"}], "scene" : 0, "scenes" : [{"nodes" : [0, 3]}]}