{
	"asset":{
		"generator":"Khronos glTF Blender I/O v4.4.55",
		"version":"2.0"
	},
	"scene":0,
	"scenes":[
		{
			"name":"Scene",
			"nodes":[
				4
			]
		}
	],
	"nodes":[
		{
			"mesh":0,
			"name":"Layer_1_Layer_1_mtl_0",
			"rotation":[
				0,
				0.7682310342788696,
				0,
				0.6401727199554443
			],
			"translation":[
				0,
				0,
				-0.048580992966890335
			]
		},
		{
			"children":[
				0
			],
			"name":"Layer_1"
		},
		{
			"children":[
				1
			],
			"name":"RootNode"
		},
		{
			"children":[
				2
			],
			"name":"seed.fbx",
			"rotation":[
				1,
				0,
				0,
				0
			]
		},
		{
			"children":[
				3
			],
			"name":"seed",
			"rotation":[
				-0.70710688829422,
				0,
				0,
				0.7071066498756409
			]
		}
	],
	"materials":[
		{
			"doubleSided":true,
			"name":"Layer_1_mtl",
			"pbrMetallicRoughness":{
				"baseColorTexture":{
					"index":0
				},
				"metallicFactor":0,
				"roughnessFactor":0.20903201401233673
			}
		}
	],
	"meshes":[
		{
			"name":"Layer_1_Layer_1_mtl_0",
			"primitives":[
				{
					"attributes":{
						"POSITION":0,
						"NORMAL":1,
						"TEXCOORD_0":2
					},
					"indices":3,
					"material":0
				}
			]
		}
	],
	"textures":[
		{
			"sampler":0,
			"source":0
		}
	],
	"images":[
		{
			"mimeType":"image/png",
			"name":"Layer_1_mtl_baseColor",
			"uri":"Layer_1_mtl_baseColor.png"
		}
	],
	"accessors":[
		{
			"bufferView":0,
			"componentType":5126,
			"count":67,
			"max":[
				0.0583694726228714,
				-0.4264955222606659,
				-0.04867173358798027
			],
			"min":[
				-0.06347258388996124,
				-0.5045078992843628,
				-0.12284503132104874
			],
			"type":"VEC3"
		},
		{
			"bufferView":1,
			"componentType":5126,
			"count":67,
			"type":"VEC3"
		},
		{
			"bufferView":2,
			"componentType":5126,
			"count":67,
			"type":"VEC2"
		},
		{
			"bufferView":3,
			"componentType":5123,
			"count":300,
			"type":"SCALAR"
		}
	],
	"bufferViews":[
		{
			"buffer":0,
			"byteLength":804,
			"byteOffset":0,
			"target":34962
		},
		{
			"buffer":0,
			"byteLength":804,
			"byteOffset":804,
			"target":34962
		},
		{
			"buffer":0,
			"byteLength":536,
			"byteOffset":1608,
			"target":34962
		},
		{
			"buffer":0,
			"byteLength":600,
			"byteOffset":2144,
			"target":34963
		}
	],
	"samplers":[
		{
			"magFilter":9729,
			"minFilter":9987
		}
	],
	"buffers":[
		{
			"byteLength":2744,
			"uri":"Untitled.bin"
		}
	]
}
